<svg xmlns="http://www.w3.org/2000/svg" xmlns:xlink="http://www.w3.org/1999/xlink" contentStyleType="text/css" data-diagram-type="DESCRIPTION" height="876.0417px" preserveAspectRatio="none" style="width:1206px;height:876px;" version="1.1" viewBox="0 0 1206 876" width="1206.25px" zoomAndPan="magnify"><defs/><g><!--cluster servicio-clientes--><g class="cluster" data-entity="servicio-clientes" data-source-line="35" data-uid="ent0002" id="cluster_servicio-clientes"><path d="M243.75,155.1771 L367.3177,155.1771 A6.25,6.25 0 0 1 371.4844,159.3438 L378.776,186.3945 L616.6667,186.3945 A4.1667,4.1667 0 0 1 620.8333,190.5612 L620.8333,695.2292 A4.1667,4.1667 0 0 1 616.6667,699.3958 L243.75,699.3958 A4.1667,4.1667 0 0 1 239.5833,695.2292 L239.5833,159.3438 A4.1667,4.1667 0 0 1 243.75,155.1771" fill="#222222" style="stroke:#2A9FD6;stroke-width:2.0833;"/><line style="stroke:#2A9FD6;stroke-width:2.0833;" x1="239.5833" x2="378.776" y1="186.3945" y2="186.3945"/><text fill="#2A9FD6" font-family="'Verdana'" font-size="12.5" font-weight="bold" lengthAdjust="spacing" textLength="115.2344" x="248.9583" y="174.0715">servicio-clientes</text></g><!--cluster servicio-facturacion--><g class="cluster" data-entity="servicio-facturacion" data-source-line="59" data-uid="ent0008" id="cluster_servicio-facturacion"><path d="M650,16.6667 L798.2564,16.6667 A6.25,6.25 0 0 1 802.4231,20.8333 L809.7148,47.8841 L1189.5833,47.8841 A4.1667,4.1667 0 0 1 1193.75,52.0508 L1193.75,418.25 A4.1667,4.1667 0 0 1 1189.5833,422.4167 L650,422.4167 A4.1667,4.1667 0 0 1 645.8333,418.25 L645.8333,20.8333 A4.1667,4.1667 0 0 1 650,16.6667" fill="#222222" style="stroke:#2A9FD6;stroke-width:2.0833;"/><line style="stroke:#2A9FD6;stroke-width:2.0833;" x1="645.8333" x2="809.7148" y1="47.8841" y2="47.8841"/><text fill="#2A9FD6" font-family="'Verdana'" font-size="12.5" font-weight="bold" lengthAdjust="spacing" textLength="139.9231" x="655.2083" y="35.5611">servicio-facturacion</text></g><!--cluster Database--><g class="cluster" data-entity="Database" data-source-line="84" data-uid="ent0014" id="cluster_Database"><path d="M547.9167,733.7708 L622.7722,733.7708 A6.25,6.25 0 0 1 626.9389,737.9375 L634.2306,764.9883 L695.8333,764.9883 A4.1667,4.1667 0 0 1 700,769.1549 L700,859.75 A4.1667,4.1667 0 0 1 695.8333,863.9167 L547.9167,863.9167 A4.1667,4.1667 0 0 1 543.75,859.75 L543.75,737.9375 A4.1667,4.1667 0 0 1 547.9167,733.7708" fill="#222222" style="stroke:#2A9FD6;stroke-width:2.0833;"/><line style="stroke:#2A9FD6;stroke-width:2.0833;" x1="543.75" x2="634.2306" y1="764.9883" y2="764.9883"/><text fill="#2A9FD6" font-family="'Verdana'" font-size="12.5" font-weight="bold" lengthAdjust="spacing" textLength="66.5222" x="553.125" y="752.6653">Database</text></g><!--cluster External Systems--><g class="cluster" data-entity="External Systems" data-source-line="89" data-uid="ent0016" id="cluster_External Systems"><path d="M20.8333,456.7917 L151.8656,456.7917 A6.25,6.25 0 0 1 156.0323,460.9583 L163.324,488.0091 L210.4167,488.0091 A4.1667,4.1667 0 0 1 214.5833,492.1758 L214.5833,583.8021 A4.1667,4.1667 0 0 1 210.4167,587.9688 L20.8333,587.9688 A4.1667,4.1667 0 0 1 16.6667,583.8021 L16.6667,460.9583 A4.1667,4.1667 0 0 1 20.8333,456.7917" fill="#222222" style="stroke:#2A9FD6;stroke-width:2.0833;"/><line style="stroke:#2A9FD6;stroke-width:2.0833;" x1="16.6667" x2="163.324" y1="488.0091" y2="488.0091"/><text fill="#2A9FD6" font-family="'Verdana'" font-size="12.5" font-weight="bold" lengthAdjust="spacing" textLength="122.699" x="26.0417" y="475.6861">External Systems</text></g><!--entity ClienteController--><g class="entity" data-entity="ClienteController" data-source-line="36" data-uid="ent0003" id="entity_ClienteController"><rect fill="#223344" height="60.3516" rx="4.1667" ry="4.1667" style="stroke:#88AADD;stroke-width:2.0833;" width="151.4221" x="446.1667" y="198.9271"/><text fill="#EFEFEF" font-family="'Verdana'" font-size="12.5" font-weight="bold" lengthAdjust="spacing" textLength="120.1721" x="461.7917" y="226.1549">ClienteController</text><text fill="#EFEFEF" font-family="'Verdana'" font-size="12.5" lengthAdjust="spacing" textLength="95.5872" x="461.7917" y="240.7056">/api/v1/clientes</text></g><!--entity ClienteServiceImpl--><g class="entity" data-entity="ClienteServiceImpl" data-source-line="41" data-uid="ent0004" id="entity_ClienteServiceImpl"><rect fill="#223344" height="45.8008" rx="4.1667" ry="4.1667" style="stroke:#88AADD;stroke-width:2.0833;" width="163.6963" x="440.0313" y="353.8854"/><text fill="#EFEFEF" font-family="'Verdana'" font-size="12.5" font-weight="bold" lengthAdjust="spacing" textLength="132.4463" x="455.6563" y="381.1132">ClienteServiceImpl</text></g><!--entity PeruDevsAdapter--><g class="entity" data-entity="PeruDevsAdapter" data-source-line="45" data-uid="ent0005" id="entity_PeruDevsAdapter"><rect fill="#223344" height="45.8008" rx="4.1667" ry="4.1667" style="stroke:#88AADD;stroke-width:2.0833;" width="155.0171" x="255.8229" y="513.0208"/><text fill="#EFEFEF" font-family="'Verdana'" font-size="12.5" font-weight="bold" lengthAdjust="spacing" textLength="123.7671" x="271.4479" y="540.2486">PeruDevsAdapter</text></g><!--entity ClienteRepository--><g class="entity" data-entity="ClienteRepository" data-source-line="49" data-uid="ent0006" id="entity_ClienteRepository"><rect fill="#223344" height="45.8008" rx="4.1667" ry="4.1667" style="stroke:#88AADD;stroke-width:2.0833;" width="157.0618" x="447.5104" y="513.0208"/><text fill="#EFEFEF" font-family="'Verdana'" font-size="12.5" font-weight="bold" lengthAdjust="spacing" textLength="125.8118" x="463.1354" y="540.2486">ClienteRepository</text></g><!--entity ClienteEntity--><g class="entity" data-entity="ClienteEntity" data-source-line="53" data-uid="ent0007" id="entity_ClienteEntity"><rect fill="#223344" height="45.8008" rx="4.1667" ry="4.1667" style="stroke:#88AADD;stroke-width:2.0833;" width="122.644" x="477.2188" y="636.9271"/><text fill="#EFEFEF" font-family="'Verdana'" font-size="12.5" font-weight="bold" lengthAdjust="spacing" textLength="91.394" x="492.8438" y="664.1549">ClienteEntity</text></g><!--entity FacturaController--><g class="entity" data-entity="FacturaController" data-source-line="60" data-uid="ent0009" id="entity_FacturaController"><rect fill="#223344" height="45.8008" rx="4.1667" ry="4.1667" style="stroke:#88AADD;stroke-width:2.0833;" width="155.7068" x="754.4375" y="60.4167"/><text fill="#EFEFEF" font-family="'Verdana'" font-size="12.5" font-weight="bold" lengthAdjust="spacing" textLength="124.4568" x="770.0625" y="87.6444">FacturaController</text></g><!--entity FacturaService--><g class="entity" data-entity="FacturaService" data-source-line="64" data-uid="ent0010" id="entity_FacturaService"><rect fill="#223344" height="45.8008" rx="4.1667" ry="4.1667" style="stroke:#88AADD;stroke-width:2.0833;" width="137.0728" x="763.7604" y="206.1979"/><text fill="#EFEFEF" font-family="'Verdana'" font-size="12.5" font-weight="bold" lengthAdjust="spacing" textLength="105.8228" x="779.3854" y="233.4257">FacturaService</text></g><!--entity FacturaRepository--><g class="entity" data-entity="FacturaRepository" data-source-line="68" data-uid="ent0011" id="entity_FacturaRepository"><rect fill="#223344" height="45.8008" rx="4.1667" ry="4.1667" style="stroke:#88AADD;stroke-width:2.0833;" width="161.3464" x="662.0313" y="353.8854"/><text fill="#EFEFEF" font-family="'Verdana'" font-size="12.5" font-weight="bold" lengthAdjust="spacing" textLength="130.0964" x="677.6563" y="381.1132">FacturaRepository</text></g><!--entity PdfGenerator--><g class="entity" data-entity="PdfGenerator" data-source-line="72" data-uid="ent0012" id="entity_PdfGenerator"><rect fill="#223344" height="57.9264" rx="4.1667" ry="4.1667" style="stroke:#88AADD;stroke-width:2.0833;" width="126.239" x="859.8021" y="347.8229"/><text fill="#EFEFEF" font-family="'Verdana'" font-size="12.5" font-weight="bold" lengthAdjust="spacing" textLength="94.989" x="875.4271" y="375.0507">PdfGenerator</text><text fill="#EFEFEF" font-family="'Verdana'" font-size="10.4167" font-style="italic" lengthAdjust="spacing" textLength="48.116" x="875.4271" y="387.6677">OpenPDF</text></g><!--entity QrCodeGenerator--><g class="entity" data-entity="QrCodeGenerator" data-source-line="77" data-uid="ent0013" id="entity_QrCodeGenerator"><rect fill="#223344" height="57.9264" rx="4.1667" ry="4.1667" style="stroke:#88AADD;stroke-width:2.0833;" width="154.6692" x="1022.6667" y="347.8229"/><text fill="#EFEFEF" font-family="'Verdana'" font-size="12.5" font-weight="bold" lengthAdjust="spacing" textLength="123.4192" x="1038.2917" y="375.0507">QrCodeGenerator</text><text fill="#EFEFEF" font-family="'Verdana'" font-size="10.4167" font-style="italic" lengthAdjust="spacing" textLength="30.3802" x="1038.2917" y="387.6677">ZXing</text></g><!--entity DB--><g class="entity" data-entity="DB" data-source-line="85" data-uid="ent0015" id="entity_DB"><path d="M559.9583,787.9375 C559.9583,777.5208 621.8785,777.5208 621.8785,777.5208 C621.8785,777.5208 683.7987,777.5208 683.7987,787.9375 L683.7987,836.8307 C683.7987,847.2474 621.8785,847.2474 621.8785,847.2474 C621.8785,847.2474 559.9583,847.2474 559.9583,836.8307 L559.9583,787.9375" fill="#553322" style="stroke:#E8C5A9;stroke-width:1.0417;"/><path d="M559.9583,787.9375 C559.9583,798.3542 621.8785,798.3542 621.8785,798.3542 C621.8785,798.3542 683.7987,798.3542 683.7987,787.9375" fill="none" style="stroke:#E8C5A9;stroke-width:1.0417;"/><text fill="#FFFFFF" font-family="'Verdana'" font-size="12.5" lengthAdjust="spacing" textLength="92.5903" x="575.5833" y="819.3319">facturacion_db</text><text fill="#FFFFFF" font-family="'Verdana'" font-size="12.5" font-weight="bold" lengthAdjust="spacing" textLength="82.3486" x="575.5833" y="833.8827">PostgreSQL</text></g><!--entity PeruDevsAPI--><g class="entity" data-entity="PeruDevsAPI" data-source-line="90" data-uid="ent0017" id="entity_PeruDevsAPI"><path d="M43.6681,510.0202 C46.294,504.3681 52.3818,503.8007 55.9935,508.8889 C59.7586,503.6869 63.2277,503.6651 66.8478,509.0378 C69.5663,502.3372 76.1711,501.4726 80.3892,507.434 C84.2977,501.7212 88.4607,501.1848 92.7685,507.0054 C95.6367,500.1238 100.546,500.8027 104.676,505.7335 C108.3776,500.2658 112.4183,500.0872 116.6036,505.1875 C120.2898,499.2582 126.6464,499.417 129.5127,506.0314 C133.3551,501.0671 137.2931,500.6654 140.9425,506.2407 C145.7531,501.8247 149.571,502.1441 152.8189,508.0404 C156.5134,501.7222 162.5431,502.4781 165.4072,508.8632 C169.4321,502.6852 174.1232,502.2178 178.098,508.9125 C181.3442,503.0659 187.7713,502.6595 191.0283,508.901 C200.4692,512.2246 202.1094,517.008 195.1173,524.6092 C202.8235,526.6484 203.5056,531.7799 199.566,537.7589 C204.4297,543.973 202.6025,548.5377 194.7978,549.6883 C199.9046,556.4165 198.8735,561.194 190.2807,563.4137 C186.9536,570.4332 182.6602,571.4289 177.4839,565.1998 C174.088,570.8572 170.1122,571.2733 165.9238,566.041 C163.5152,572.3648 157.5938,575.2353 152.4147,569.0277 C149.0382,574.363 144.3753,575.1871 140.4522,569.6279 C137.6596,576.4319 132.6913,575.7967 128.2925,571.3665 C125.6208,576.0505 120.3103,575.9432 117.4385,571.6073 C113.0445,578.4223 107.7839,578.5962 103.5873,571.412 C100.2662,575.8412 94.9612,575.4229 92.7682,570.1535 C88.3784,574.8482 82.4219,574.4168 80.9012,567.2766 C76.2957,572.4837 71.2257,572.0835 67.8576,565.864 C63.9734,571.141 58.3617,571.1212 54.9306,565.3345 C51.0742,570.7034 47.576,570.8868 44.212,564.871 C35.8556,562.2832 34.9036,554.711 41.6274,549.575 C34.8826,545.4653 35.6304,540.8242 41.7245,536.8122 C35.854,533.1782 35.1122,528.0765 41.2772,524.0216 C36.0946,518.5665 35.8895,513.2621 43.6681,510.0202" fill="#444444" style="stroke:#AAAAAA;stroke-width:1.0417;"/><text fill="#FFFFFF" font-family="'Verdana'" font-size="12.5" font-weight="bold" lengthAdjust="spacing" textLength="94.9829" x="54.5833" y="532.9778">PeruDevs API</text><text fill="#FFFFFF" font-family="'Verdana'" font-size="12.5" lengthAdjust="spacing" textLength="122.0764" x="54.5833" y="547.5286">Validaci&#243;n RUC/DNI</text></g><!--link ClienteController to ClienteServiceImpl--><g class="link" data-entity-1="ClienteController" data-entity-2="ClienteServiceImpl" data-source-line="97" data-uid="lnk18" id="link_ClienteController_ClienteServiceImpl"><path d="M521.875,259.6042 C521.875,287.3646 521.875,322.0729 521.875,347.2083" fill="none" id="ClienteController-to-ClienteServiceImpl" style="stroke:#CCCCCC;stroke-width:3.125;"/><polygon fill="#CCCCCC" points="521.875,353.4583,526.0417,344.0833,521.875,348.25,517.7083,344.0833,521.875,353.4583" style="stroke:#CCCCCC;stroke-width:3.125;"/></g><!--link ClienteServiceImpl to PeruDevsAdapter--><g class="link" data-entity-1="ClienteServiceImpl" data-entity-2="PeruDevsAdapter" data-source-line="98" data-uid="lnk19" id="link_ClienteServiceImpl_PeruDevsAdapter"><path d="M491.3229,400.1042 C473,413.7083 449.4167,431.6667 429.1667,448.4583 C403.8125,469.4792 380.5517,490.5933 361.4475,508.3954" fill="none" id="ClienteServiceImpl-to-PeruDevsAdapter" style="stroke:#CCCCCC;stroke-width:3.125;"/><polygon fill="#CCCCCC" points="356.875,512.6563,366.5743,509.3133,360.6854,509.1055,360.8932,503.2167,356.875,512.6563" style="stroke:#CCCCCC;stroke-width:3.125;"/></g><!--link ClienteServiceImpl to ClienteRepository--><g class="link" data-entity-1="ClienteServiceImpl" data-entity-2="ClienteRepository" data-source-line="99" data-uid="lnk20" id="link_ClienteServiceImpl_ClienteRepository"><path d="M522.4583,399.9896 C523.2604,429.9271 524.5011,476.7001 525.2928,506.5751" fill="none" id="ClienteServiceImpl-to-ClienteRepository" style="stroke:#CCCCCC;stroke-width:3.125;"/><polygon fill="#CCCCCC" points="525.4583,512.8229,529.3752,503.3408,525.3204,507.6164,521.0448,503.5616,525.4583,512.8229" style="stroke:#CCCCCC;stroke-width:3.125;"/></g><!--link ClienteRepository to ClienteEntity--><g class="link" data-entity-1="ClienteRepository" data-entity-2="ClienteEntity" data-source-line="100" data-uid="lnk21" id="link_ClienteRepository_ClienteEntity"><path d="M528.3333,559.3125 C530.5938,581.2917 533.3724,608.4389 535.6224,630.366" fill="none" id="ClienteRepository-to-ClienteEntity" style="stroke:#CCCCCC;stroke-width:3.125;"/><polygon fill="#CCCCCC" points="536.2604,636.5833,539.4483,626.832,535.7288,631.4022,531.1585,627.6826,536.2604,636.5833" style="stroke:#CCCCCC;stroke-width:3.125;"/></g><!--link ClienteEntity to DB--><g class="link" data-entity-1="ClienteEntity" data-entity-2="DB" data-source-line="101" data-uid="lnk22" id="link_ClienteEntity_DB"><path d="M550.8333,683.0729 C564.5521,707.8438 583.8886,742.7513 599.8574,771.5846" fill="none" id="ClienteEntity-to-DB" style="stroke:#CCCCCC;stroke-width:3.125;"/><polygon fill="#CCCCCC" points="602.8854,777.0521,601.9883,766.8322,600.362,772.4958,594.6983,770.8696,602.8854,777.0521" style="stroke:#CCCCCC;stroke-width:3.125;"/></g><!--link FacturaController to FacturaService--><g class="link" data-entity-1="FacturaController" data-entity-2="FacturaService" data-source-line="104" data-uid="lnk23" id="link_FacturaController_FacturaService"><path d="M832.2917,106.5 C832.2917,133.5833 832.2917,172.8958 832.2917,199.8854" fill="none" id="FacturaController-to-FacturaService" style="stroke:#CCCCCC;stroke-width:3.125;"/><polygon fill="#CCCCCC" points="832.2917,206.1354,836.4583,196.7604,832.2917,200.9271,828.125,196.7604,832.2917,206.1354" style="stroke:#CCCCCC;stroke-width:3.125;"/></g><!--link FacturaService to FacturaRepository--><g class="link" data-entity-1="FacturaService" data-entity-2="FacturaRepository" data-source-line="105" data-uid="lnk24" id="link_FacturaService_FacturaRepository"><path d="M818.6875,252.2604 C801.8438,279.625 776.6206,320.6362 759.7143,348.0946" fill="none" id="FacturaService-to-FacturaRepository" style="stroke:#CCCCCC;stroke-width:3.125;"/><polygon fill="#CCCCCC" points="756.4375,353.4167,764.9008,347.6181,759.1682,348.9816,757.8047,343.2489,756.4375,353.4167" style="stroke:#CCCCCC;stroke-width:3.125;"/></g><!--link FacturaService to PdfGenerator--><g class="link" data-entity-1="FacturaService" data-entity-2="PdfGenerator" data-source-line="106" data-uid="lnk25" id="link_FacturaService_PdfGenerator"><path d="M846.0521,252.2604 C861.8958,277.7083 884.655,314.2777 901.9779,342.1006" fill="none" id="FacturaService-to-PdfGenerator" style="stroke:#CCCCCC;stroke-width:3.125;"/><polygon fill="#CCCCCC" points="905.2813,347.4063,903.8633,337.2455,902.5284,342.9849,896.7891,341.65,905.2813,347.4063" style="stroke:#CCCCCC;stroke-width:3.125;"/></g><!--link FacturaService to QrCodeGenerator--><g class="link" data-entity-1="FacturaService" data-entity-2="QrCodeGenerator" data-source-line="107" data-uid="lnk26" id="link_FacturaService_QrCodeGenerator"><path d="M873.2396,252.4167 C920.1146,277.9063 991.4785,316.7218 1042.5306,344.4926" fill="none" id="FacturaService-to-QrCodeGenerator" style="stroke:#CCCCCC;stroke-width:3.125;"/><polygon fill="#CCCCCC" points="1048.0208,347.4792,1041.7765,339.3392,1043.4456,344.9904,1037.7944,346.6595,1048.0208,347.4792" style="stroke:#CCCCCC;stroke-width:3.125;"/></g><!--link FacturaRepository to DB--><g class="link" data-entity-1="FacturaRepository" data-entity-2="DB" data-source-line="108" data-uid="lnk27" id="link_FacturaRepository_DB"><path d="M736.5521,399.9167 C716.8333,470.6667 656.8344,685.917 633.0427,771.2712" fill="none" id="FacturaRepository-to-DB" style="stroke:#CCCCCC;stroke-width:3.125;"/><polygon fill="#CCCCCC" points="631.3646,777.2917,637.8955,769.3797,632.763,772.2746,629.8682,767.1422,631.3646,777.2917" style="stroke:#CCCCCC;stroke-width:3.125;"/></g><!--reverse link PeruDevsAPI to PeruDevsAdapter--><g class="link" data-entity-1="PeruDevsAPI" data-entity-2="PeruDevsAdapter" data-source-line="111" data-uid="lnk29" id="link_PeruDevsAPI_PeruDevsAdapter"><path d="M203.9375,535.9167 C223.1875,535.9167 236.1979,535.9167 255.4479,535.9167" fill="none" id="PeruDevsAPI-backto-PeruDevsAdapter" style="stroke:#CCCCCC;stroke-width:3.125;"/><polygon fill="#CCCCCC" points="197.6875,535.9167,207.0625,540.0833,202.8958,535.9167,207.0625,531.75,197.6875,535.9167" style="stroke:#CCCCCC;stroke-width:3.125;"/></g><!--link FacturaService to ClienteServiceImpl--><g class="link" data-entity-1="FacturaService" data-entity-2="ClienteServiceImpl" data-source-line="114" data-uid="lnk30" id="link_FacturaService_ClienteServiceImpl"><path d="M763.5417,247.4896 C727.7917,257.75 683.9479,272.3229 646.875,290.5313 C611.0417,308.125 578.6504,331.0625 554.2129,349.875" fill="none" id="FacturaService-to-ClienteServiceImpl" style="stroke:#CCCCCC;stroke-width:3.125;stroke-dasharray:7.2917,7.2917;"/><polygon fill="#CCCCCC" points="549.2604,353.6875,559.2308,351.2704,553.3875,350.5104,554.1475,344.667,549.2604,353.6875" style="stroke:#CCCCCC;stroke-width:3.125;"/><text fill="#CCCCCC" font-family="'Verdana'" font-size="12.5" lengthAdjust="spacing" textLength="111.5662" x="653.125" y="308.384">Puede referenciar</text></g><!--SRC=[ZLLTRzCm57tthp3bOTj3LjQkKZULIbdIeag8THqW14F8JMwBMMe7nza7QB-Ady0Vmt6SB76IZTitdvDxhdtlFTt3ZkDWZxCDtQQ21FJl7uP3mBD4qeZZ_VUm8_Wy2LB13p8gUY6_mmvmSB_cOejGSarPJ0JPuO3lOiw0IVmROHLd9BZU2fwoqECH5_ZbS7XyF1hb61SX27FkddYZsLYVppcJvdIkGv-wGl3RElcX8YmWa8Hj8-WI7WmowQRmUEowlcyBp-RPhwOG4adM9EaK68s6my6WAJ0RUoFtfEDcLO4WucdObVrOHykxwVYFx2HxFvFTi3mTzhVcz06fsDE3uSE6CbfEXLVq618z38gr93zJa72ABq7SA2RNl8Xg4ehLPSWMS2yng1COg9Vr9GjJs6CNpSTg9gNWKGG2Vz6CB2RhQGEUzDVJaj0dCUtV7FKB6GryHUqIUScmsCLHgqO5BqKQkPOWKXzk4ZSaiRIBjS3kB4Pn1J5FgEJYlhMWH_ZPJ3CcgMpFaaEL30-TZPoJG1QsqDBCJG5prjrFawEhdmsu-sg6QjhIciPWp-ReUkW6_4JZmyqRO228ebbTho2rwPnir2rnGd_1wwDNqmcTdiV0blvyqgVJIJy3ExGkrDA7q25dWKyhVlv4sRQfLn-1iypiLFjzbQ-onBxnGRlNfJ_sAWFnBLnViUmnU2At0YultcQ5zJ19i7zcZnnDfFgZIV3iJcq9gshc9oJ2b_SPf-4RkNNsAhk6tUKYaxfY7qb4G_EVjlhWzVrt2wrVRkLoeSskrUjM4EbxF5hTF4f_S0mCDymCDJtB2VajSwOjLeDQtATWMtxn5BLX2QZf8HOtNtnKTuY2evhIUiTAIr5pbOklw-k7h4srM9MQRMBs1fNjQSEjSKVDZQvVILKBTxgh0LVtoaSDGpvfoBPl9uADh7P2pKWjYNew0UNp97X_1HiGm09A3kno3m_R1W2VucKAQiH4-QNu1m00]--></g></svg>