<svg xmlns="http://www.w3.org/2000/svg" xmlns:xlink="http://www.w3.org/1999/xlink" contentStyleType="text/css" data-diagram-type="DESCRIPTION" height="415.625px" preserveAspectRatio="none" style="width:467px;height:415px;" version="1.1" viewBox="0 0 467 415" width="467.7083px" zoomAndPan="magnify"><defs/><g><!--cluster Build System--><g class="cluster" data-entity="Build System" data-source-line="13" data-uid="ent0002" id="cluster_Build System"><path d="M35.4167,16.6667 L136.1145,16.6667 A6.25,6.25 0 0 1 140.2812,20.8333 L147.5728,47.8841 L431.25,47.8841 A4.1667,4.1667 0 0 1 435.4167,52.0508 L435.4167,253.6875 A4.1667,4.1667 0 0 1 431.25,257.8542 L35.4167,257.8542 A4.1667,4.1667 0 0 1 31.25,253.6875 L31.25,20.8333 A4.1667,4.1667 0 0 1 35.4167,16.6667" fill="#555555" style="stroke:#2A9FD6;stroke-width:2.0833;"/><line style="stroke:#2A9FD6;stroke-width:2.0833;" x1="31.25" x2="147.5728" y1="47.8841" y2="47.8841"/><text fill="#2A9FD6" font-family="'Verdana'" font-size="12.5" font-weight="bold" lengthAdjust="spacing" textLength="92.3645" x="40.625" y="35.5611">Build System</text></g><!--cluster Build Outputs--><g class="cluster" data-entity="Build Outputs" data-source-line="20" data-uid="ent0006" id="cluster_Build Outputs"><path d="M20.8333,282.8542 L126.2248,282.8542 A6.25,6.25 0 0 1 130.3914,287.0208 L137.6831,314.0716 L451.0417,314.0716 A4.1667,4.1667 0 0 1 455.2083,318.2383 L455.2083,399.4583 A4.1667,4.1667 0 0 1 451.0417,403.625 L20.8333,403.625 A4.1667,4.1667 0 0 1 16.6667,399.4583 L16.6667,287.0208 A4.1667,4.1667 0 0 1 20.8333,282.8542" fill="#555555" style="stroke:#2A9FD6;stroke-width:2.0833;"/><line style="stroke:#2A9FD6;stroke-width:2.0833;" x1="16.6667" x2="137.6831" y1="314.0716" y2="314.0716"/><text fill="#2A9FD6" font-family="'Verdana'" font-size="12.5" font-weight="bold" lengthAdjust="spacing" textLength="97.0581" x="26.0417" y="301.7486">Build Outputs</text></g><!--entity pom_clientes--><g class="entity" data-entity="pom_clientes" data-source-line="14" data-uid="ent0003" id="entity_pom_clientes"><rect fill="#222222" height="72.4772" rx="4.1667" ry="4.1667" style="stroke:#888888;stroke-width:2.0833;" width="159.3221" x="47.4271" y="60.4167"/><text fill="#FFFFFF" font-family="'Verdana'" font-size="12.5" font-weight="bold" lengthAdjust="spacing" textLength="119.7998" x="63.0521" y="87.6444">servicio-clientes/</text><text fill="#FFFFFF" font-family="'Verdana'" font-size="12.5" lengthAdjust="spacing" textLength="54.7791" x="63.0521" y="102.1952">pom.xml</text><text fill="#FFFFFF" font-family="'Verdana'" font-size="10.4167" lengthAdjust="spacing" textLength="128.0721" x="63.0521" y="114.8122">Spring Boot Parent 3.5.6</text></g><!--entity pom_facturacion--><g class="entity" data-entity="pom_facturacion" data-source-line="15" data-uid="ent0004" id="entity_pom_facturacion"><rect fill="#222222" height="72.4772" rx="4.1667" ry="4.1667" style="stroke:#888888;stroke-width:2.0833;" width="175.7385" x="243.3854" y="60.4167"/><text fill="#FFFFFF" font-family="'Verdana'" font-size="12.5" font-weight="bold" lengthAdjust="spacing" textLength="144.4885" x="259.0104" y="87.6444">servicio-facturacion/</text><text fill="#FFFFFF" font-family="'Verdana'" font-size="12.5" lengthAdjust="spacing" textLength="54.7791" x="259.0104" y="102.1952">pom.xml</text><text fill="#FFFFFF" font-family="'Verdana'" font-size="10.4167" lengthAdjust="spacing" textLength="128.0721" x="259.0104" y="114.8122">Spring Boot Parent 3.5.6</text></g><!--entity maven_plugin--><g class="entity" data-entity="maven_plugin" data-source-line="17" data-uid="ent0005" id="entity_maven_plugin"><rect fill="#222222" height="45.8008" rx="4.1667" ry="4.1667" style="stroke:#888888;stroke-width:2.0833;" width="193.335" x="136.6667" y="195.3854"/><text fill="#FFFFFF" font-family="'Verdana'" font-size="12.5" lengthAdjust="spacing" textLength="162.085" x="152.2917" y="222.6132">spring-boot-maven-plugin</text></g><!--entity jar_clientes--><g class="entity" data-entity="jar_clientes" data-source-line="21" data-uid="ent0007" id="entity_jar_clientes"><rect fill="#222222" height="60.3516" rx="4.1667" ry="4.1667" style="stroke:#888888;stroke-width:2.0833;" width="173.3276" x="33.125" y="326.6042"/><text fill="#FFFFFF" font-family="'Verdana'" font-size="12.5" lengthAdjust="spacing" textLength="142.0776" x="48.75" y="353.8319">servicio-clientes-0.0.1-</text><text fill="#FFFFFF" font-family="'Verdana'" font-size="12.5" lengthAdjust="spacing" textLength="88.4277" x="48.75" y="368.3827">SNAPSHOT.jar</text></g><!--entity jar_facturacion--><g class="entity" data-entity="jar_facturacion" data-source-line="22" data-uid="ent0008" id="entity_jar_facturacion"><rect fill="#222222" height="60.3516" rx="4.1667" ry="4.1667" style="stroke:#888888;stroke-width:2.0833;" width="195.2637" x="242.9896" y="326.6042"/><text fill="#FFFFFF" font-family="'Verdana'" font-size="12.5" lengthAdjust="spacing" textLength="164.0137" x="258.6146" y="353.8319">servicio-facturacion-0.0.1-</text><text fill="#FFFFFF" font-family="'Verdana'" font-size="12.5" lengthAdjust="spacing" textLength="88.4277" x="258.6146" y="368.3827">SNAPSHOT.jar</text></g><!--link pom_clientes to maven_plugin--><g class="link" data-entity-1="pom_clientes" data-entity-2="maven_plugin" data-source-line="25" data-uid="lnk9" id="link_pom_clientes_maven_plugin"><path d="M158.6771,133.2396 C176.5313,153.3333 194.1618,173.1606 209.568,190.5044" fill="none" id="pom_clientes-to-maven_plugin" style="stroke:#AAAAAA;stroke-width:3.125;"/><polygon fill="#AAAAAA" points="213.7188,195.1771,210.6078,185.4009,210.2598,191.2832,204.3776,190.9352,213.7188,195.1771" style="stroke:#AAAAAA;stroke-width:3.125;"/></g><!--link pom_facturacion to maven_plugin--><g class="link" data-entity-1="pom_facturacion" data-entity-2="maven_plugin" data-source-line="26" data-uid="lnk10" id="link_pom_facturacion_maven_plugin"><path d="M302.1354,133.2396 C285.6771,153.3333 269.5753,172.9986 255.367,190.3423" fill="none" id="pom_facturacion-to-maven_plugin" style="stroke:#AAAAAA;stroke-width:3.125;"/><polygon fill="#AAAAAA" points="251.4063,195.1771,260.5705,190.5654,254.7069,191.1481,254.1242,185.2844,251.4063,195.1771" style="stroke:#AAAAAA;stroke-width:3.125;"/></g><!--link maven_plugin to jar_clientes--><g class="link" data-entity-1="maven_plugin" data-entity-2="jar_clientes" data-source-line="28" data-uid="lnk11" id="link_maven_plugin_jar_clientes"><path d="M214.8333,241.5521 C195.6146,264.6563 169.4157,296.1239 148.2282,321.5718" fill="none" id="maven_plugin-to-jar_clientes" style="stroke:#AAAAAA;stroke-width:3.125;"/><polygon fill="#AAAAAA" points="144.2292,326.375,153.4298,321.8363,147.5617,322.3724,147.0256,316.5043,144.2292,326.375" style="stroke:#AAAAAA;stroke-width:3.125;"/></g><!--link maven_plugin to jar_facturacion--><g class="link" data-entity-1="maven_plugin" data-entity-2="jar_facturacion" data-source-line="29" data-uid="lnk12" id="link_maven_plugin_jar_facturacion"><path d="M250.8125,241.5521 C268.9792,264.6563 293.6459,296.015 313.6668,321.463" fill="none" id="maven_plugin-to-jar_facturacion" style="stroke:#AAAAAA;stroke-width:3.125;"/><polygon fill="#AAAAAA" points="317.5313,326.375,315.0092,316.4306,314.3108,322.2816,308.4598,321.5833,317.5313,326.375" style="stroke:#AAAAAA;stroke-width:3.125;"/></g><!--SRC=[hL31Ji904BttAyPwtXOq6W-r2PWGJq9IZoHasYvbfTrjPhSW6l_TPQcnGENaN7RtpSnxRz-LMV6AGxPB5HMUfzT2raXO0V7Ce2nA3fyUs1fZjYv8DJ9_KgKYkBvnTUWfoZcr-8ChXq-KD2qwSULGlS9SROKiO8cbvjvNHnM9rBPLR3T7hkoKLriBM73mnuqeSqXssl3ARwT__VfH6cjE6v49nR9IS6cu3gCmZUUoLbNmNfLp6IsjDz3YWpyE1t5IqzxFM2a3CoIx0RV1NN0VXVkns0VKO5SNFsoN59UOcORGNkN_Y7O8dUwfk7OyBBKyhC8Dbwmkcq98H-20nG7eoN3QcBenkYV4imJP81W4GpQNoSjebZnFNuCt9ATXpp-JwOlbCbFtktl3dTY1iVZuHoVvd0zutPTh7xdjxNO8lm40]--></g></svg>