<svg xmlns="http://www.w3.org/2000/svg" xmlns:xlink="http://www.w3.org/1999/xlink" contentStyleType="text/css" data-diagram-type="DESCRIPTION" height="153.125px" preserveAspectRatio="none" style="width:2052px;height:153px;" version="1.1" viewBox="0 0 2052 153" width="2052.0833px" zoomAndPan="magnify"><defs/><g><!--entity dev--><g class="entity" data-entity="dev" data-source-line="15" data-uid="ent0002" id="entity_dev"><rect fill="#222222" height="45.8008" rx="4.1667" ry="4.1667" style="stroke:#888888;stroke-width:2.0833;" width="115.9912" x="17.7083" y="80.1979"/><text fill="#FFFFFF" font-family="'Verdana'" font-size="12.5" lengthAdjust="spacing" textLength="84.7412" x="33.3333" y="107.4257">Desarrollador</text></g><!--entity exec--><g class="entity" data-entity="exec" data-source-line="16" data-uid="ent0003" id="entity_exec"><rect fill="#222222" height="45.8008" rx="4.1667" ry="4.1667" style="stroke:#888888;stroke-width:2.0833;" width="77.6672" x="197.2396" y="80.1979"/><text fill="#FFFFFF" font-family="'Verdana'" font-size="12.5" lengthAdjust="spacing" textLength="46.4172" x="212.8646" y="107.4257">Ejecuta</text></g><!--entity mvnw--><g class="entity" data-entity="mvnw" data-source-line="17" data-uid="ent0004" id="entity_mvnw"><rect fill="#222222" height="45.8008" rx="4.1667" ry="4.1667" style="stroke:#888888;stroke-width:2.0833;" width="149.8047" x="338.4479" y="80.1979"/><text fill="#FFFFFF" font-family="'Verdana'" font-size="12.5" lengthAdjust="spacing" textLength="118.5547" x="354.0729" y="107.4257">mvnw / mvnw.cmd</text></g><!--entity check--><g class="entity" data-entity="check" data-source-line="18" data-uid="ent0005" id="entity_check"><rect fill="#222222" height="45.8008" rx="4.1667" ry="4.1667" style="stroke:#888888;stroke-width:2.0833;" width="78.5095" x="551.7917" y="80.1979"/><text fill="#FFFFFF" font-family="'Verdana'" font-size="12.5" lengthAdjust="spacing" textLength="47.2595" x="567.4167" y="107.4257">Verifica</text></g><!--entity path--><g class="entity" data-entity="path" data-source-line="19" data-uid="ent0006" id="entity_path"><rect fill="#222222" height="60.3516" rx="4.1667" ry="4.1667" style="stroke:#888888;stroke-width:2.0833;" width="172.8271" x="693.8438" y="72.9167"/><text fill="#FFFFFF" font-family="'Verdana'" font-size="12.5" lengthAdjust="spacing" textLength="122.0032" x="709.4688" y="100.1444">/.m2/wrapper/dists/</text><text fill="#FFFFFF" font-family="'Verdana'" font-size="12.5" lengthAdjust="spacing" textLength="141.5771" x="709.4688" y="114.6952">apache-maven-3.9.11/</text></g><!--entity download--><g class="entity" data-entity="download" data-source-line="20" data-uid="ent0007" id="entity_download"><rect fill="#222222" height="60.3516" rx="4.1667" ry="4.1667" style="stroke:#888888;stroke-width:2.0833;" width="222.6257" x="992.7188" y="17.7083"/><text fill="#FFFFFF" font-family="'Verdana'" font-size="12.5" lengthAdjust="spacing" textLength="153.3936" x="1008.3438" y="44.9361">Descargar Maven 3.9.11</text><text fill="#FFFFFF" font-family="'Verdana'" font-size="12.5" lengthAdjust="spacing" textLength="191.3757" x="1008.3438" y="59.4869">desde repo.maven.apache.org</text></g><!--entity extract--><g class="entity" data-entity="extract" data-source-line="21" data-uid="ent0008" id="entity_extract"><rect fill="#222222" height="45.8008" rx="4.1667" ry="4.1667" style="stroke:#888888;stroke-width:2.0833;" width="189.9414" x="1327.8438" y="29.1562"/><text fill="#FFFFFF" font-family="'Verdana'" font-size="12.5" lengthAdjust="spacing" textLength="158.6914" x="1343.4688" y="56.384">Extraer en MAVEN_HOME</text></g><!--entity goal--><g class="entity" data-entity="goal" data-source-line="22" data-uid="ent0009" id="entity_goal"><rect fill="#222222" height="45.8008" rx="4.1667" ry="4.1667" style="stroke:#888888;stroke-width:2.0833;" width="182.843" x="1581.3229" y="89.5729"/><text fill="#FFFFFF" font-family="'Verdana'" font-size="12.5" lengthAdjust="spacing" textLength="151.593" x="1596.9479" y="116.8007">Ejecutar Meta de Maven</text></g><!--entity build--><g class="entity" data-entity="build" data-source-line="23" data-uid="ent0010" id="entity_build"><rect fill="#222222" height="60.3516" rx="4.1667" ry="4.1667" style="stroke:#888888;stroke-width:2.0833;" width="213.8794" x="1827.7083" y="82.2917"/><text fill="#FFFFFF" font-family="'Verdana'" font-size="12.5" lengthAdjust="spacing" textLength="182.6294" x="1843.3333" y="109.5194">Compilar/Probar/Empaquetar</text><text fill="#FFFFFF" font-family="'Verdana'" font-size="12.5" lengthAdjust="spacing" textLength="63.8794" x="1843.3333" y="124.0702">Aplicaci&#243;n</text></g><!--link dev to exec--><g class="link" data-entity-1="dev" data-entity-2="exec" data-source-line="25" data-uid="lnk11" id="link_dev_exec"><path d="M133.8958,103.0938 C154.7917,103.0938 171.6563,103.0938 190.5208,103.0938" fill="none" id="dev-to-exec" style="stroke:#AAAAAA;stroke-width:3.125;"/><polygon fill="#AAAAAA" points="196.7708,103.0938,187.3958,98.9271,191.5625,103.0938,187.3958,107.2604,196.7708,103.0938" style="stroke:#AAAAAA;stroke-width:3.125;"/></g><!--link exec to mvnw--><g class="link" data-entity-1="exec" data-entity-2="mvnw" data-source-line="26" data-uid="lnk12" id="link_exec_mvnw"><path d="M275.1354,103.0938 C293.5521,103.0938 310.0729,103.0938 331.7396,103.0938" fill="none" id="exec-to-mvnw" style="stroke:#AAAAAA;stroke-width:3.125;"/><polygon fill="#AAAAAA" points="337.9896,103.0938,328.6146,98.9271,332.7813,103.0938,328.6146,107.2604,337.9896,103.0938" style="stroke:#AAAAAA;stroke-width:3.125;"/></g><!--link mvnw to check--><g class="link" data-entity-1="mvnw" data-entity-2="check" data-source-line="27" data-uid="lnk13" id="link_mvnw_check"><path d="M488.3646,103.0938 C510.1042,103.0938 526.7708,103.0938 545.3229,103.0938" fill="none" id="mvnw-to-check" style="stroke:#AAAAAA;stroke-width:3.125;"/><polygon fill="#AAAAAA" points="551.5729,103.0938,542.1979,98.9271,546.3646,103.0938,542.1979,107.2604,551.5729,103.0938" style="stroke:#AAAAAA;stroke-width:3.125;"/></g><!--link check to path--><g class="link" data-entity-1="check" data-entity-2="path" data-source-line="28" data-uid="lnk14" id="link_check_path"><path d="M630.4167,103.0938 C648.6979,103.0938 665.1146,103.0938 687.1979,103.0938" fill="none" id="check-to-path" style="stroke:#AAAAAA;stroke-width:3.125;"/><polygon fill="#AAAAAA" points="693.4479,103.0938,684.0729,98.9271,688.2396,103.0938,684.0729,107.2604,693.4479,103.0938" style="stroke:#AAAAAA;stroke-width:3.125;"/></g><!--link path to download--><g class="link" data-entity-1="path" data-entity-2="download" data-source-line="29" data-uid="lnk15" id="link_path_download"><path d="M867.0833,88.375 C905.5208,81.7813 945.1629,74.9736 986.1421,67.9424" fill="none" id="path-to-download" style="stroke:#AAAAAA;stroke-width:3.125;"/><polygon fill="#AAAAAA" points="992.3021,66.8854,982.3575,64.3642,987.1688,67.7662,983.7667,72.5775,992.3021,66.8854" style="stroke:#AAAAAA;stroke-width:3.125;"/><text fill="#24292F" font-family="'Verdana'" font-size="12.5" lengthAdjust="spacing" textLength="51.3977" x="904.1771" y="64.6965">Faltante</text></g><!--link path to goal--><g class="link" data-entity-1="path" data-entity-2="goal" data-source-line="30" data-uid="lnk16" id="link_path_goal"><path d="M867.0833,104 C1035.6458,105.7708 1402.417,109.6318 1574.8233,111.4548" fill="none" id="path-to-goal" style="stroke:#AAAAAA;stroke-width:3.125;"/><polygon fill="#AAAAAA" points="1581.0729,111.5208,1571.7425,107.2553,1575.8649,111.4658,1571.6544,115.5881,1581.0729,111.5208" style="stroke:#AAAAAA;stroke-width:3.125;"/><text fill="#24292F" font-family="'Verdana'" font-size="12.5" lengthAdjust="spacing" textLength="37.8723" x="1252.8438" y="99.0715">Existe</text></g><!--link download to extract--><g class="link" data-entity-1="download" data-entity-2="extract" data-source-line="31" data-uid="lnk17" id="link_download_extract"><path d="M1215.8333,49.3438 C1252.2292,49.8229 1286.063,50.2725 1321.1151,50.7308" fill="none" id="download-to-extract" style="stroke:#AAAAAA;stroke-width:3.125;"/><polygon fill="#AAAAAA" points="1327.3646,50.8125,1318.0449,46.5236,1322.1567,50.7444,1317.9359,54.8562,1327.3646,50.8125" style="stroke:#AAAAAA;stroke-width:3.125;"/></g><!--link extract to goal--><g class="link" data-entity-1="extract" data-entity-2="goal" data-source-line="32" data-uid="lnk18" id="link_extract_goal"><path d="M1518.2604,75.0625 C1538.7813,80.0729 1554.3757,83.8741 1574.7611,88.8429" fill="none" id="extract-to-goal" style="stroke:#AAAAAA;stroke-width:3.125;"/><polygon fill="#AAAAAA" points="1580.8333,90.3229,1572.7117,84.0547,1575.7731,89.0895,1570.7383,92.151,1580.8333,90.3229" style="stroke:#AAAAAA;stroke-width:3.125;"/></g><!--link goal to build--><g class="link" data-entity-1="goal" data-entity-2="build" data-source-line="33" data-uid="lnk19" id="link_goal_build"><path d="M1764.6563,112.4688 C1784.8542,112.4688 1800.1875,112.4688 1820.9375,112.4688" fill="none" id="goal-to-build" style="stroke:#AAAAAA;stroke-width:3.125;"/><polygon fill="#AAAAAA" points="1827.1875,112.4688,1817.8125,108.3021,1821.9792,112.4688,1817.8125,116.6354,1827.1875,112.4688" style="stroke:#AAAAAA;stroke-width:3.125;"/></g><!--SRC=[RL7DZjCm4BxxASnoRg8D75WEIDqb5PS2fprLGbDxcdZhs6RYDaK8Nef7uCMmns4th9Z3M3FVDt-VNyGU1vJgszvJ9yQZSG481ace8hZEelmkPB9RKCUE_CdfEsyzoPSDMy4yQQGv_uQDynllufpTi75sx47xoRXE7i2EA7uifWAHd-Q9S-MQxNc_vdLpqnnIhR1uY39wIQRhezGcBswy4-BfWgltEERErgR9T2LXb1hFIqBxWEeKWI6ye5fYmzbDifRvgTIWcPE39USUoHoCAWrKZ-guH7_MrT3K4q48IBKsOnphdOC0YRaQu8nkzQgwgQwlQwuF4FjdsokW3aXkCrSMxivf73McZmg-uYPLwLYbZomt-ibP3_gVGo-H04ccDjlrVVlnouTFstO-Eo4g_aULD1SZ9CdAV6Pt7koIUkU7O2nG_PdyFZtj4E3hAPNHpgs3JT8ey_jNgTsVZDL2f2-GgzMxedTs7B6oB7cEYfJiEMPfikFexu7ohTo0JQj4V0BpXWbeBqbk58_KCh6SEh-FTC4rEU8L_m00]--></g></svg>