<svg xmlns="http://www.w3.org/2000/svg" xmlns:xlink="http://www.w3.org/1999/xlink" contentStyleType="text/css" data-diagram-type="DESCRIPTION" height="732.2917px" preserveAspectRatio="none" style="width:1225px;height:732px;" version="1.1" viewBox="0 0 1225 732" width="1225px" zoomAndPan="magnify"><defs/><g><!--cluster Repo--><g class="cluster" data-entity="Repo" data-source-line="13" data-uid="ent0002" id="cluster_Repo"><rect fill="#222222" height="169.4687" rx="4.1667" ry="4.1667" style="stroke:#888888;stroke-width:2.0833;" width="392.7083" x="556.25" y="17.7083"/><text fill="#FFFFFF" font-family="'Verdana'" font-size="12.5" font-weight="bold" lengthAdjust="spacing" textLength="128.2654" x="688.4715" y="36.6028">FitLive Repository</text></g><!--cluster Back/--><g class="cluster" data-entity="Back." data-source-line="23" data-uid="ent0009" id="cluster_Back."><path d="M431.25,220.5104 L477.8341,220.5104 A6.25,6.25 0 0 1 482.0007,224.6771 L489.2924,251.7279 L788.5417,251.7279 A4.1667,4.1667 0 0 1 792.7083,255.8945 L792.7083,322.5521 A4.1667,4.1667 0 0 1 788.5417,326.7187 L431.25,326.7187 A4.1667,4.1667 0 0 1 427.0833,322.5521 L427.0833,224.6771 A4.1667,4.1667 0 0 1 431.25,220.5104" fill="#555555" style="stroke:#2A9FD6;stroke-width:2.0833;"/><line style="stroke:#2A9FD6;stroke-width:2.0833;" x1="427.0833" x2="489.2924" y1="251.7279" y2="251.7279"/><text fill="#2A9FD6" font-family="'Verdana'" font-size="12.5" font-weight="bold" lengthAdjust="spacing" textLength="38.2507" x="436.4583" y="239.4049">Back/</text></g><!--cluster servicio-clientes/--><g class="cluster" data-entity="servicio-clientes." data-source-line="31" data-uid="ent0014" id="cluster_servicio-clientes."><path d="M631.25,351.7187 L759.3831,351.7187 A6.25,6.25 0 0 1 763.5498,355.8854 L770.8415,382.9362 L1208.3333,382.9362 A4.1667,4.1667 0 0 1 1212.5,387.1029 L1212.5,453.7708 A4.1667,4.1667 0 0 1 1208.3333,457.9375 L631.25,457.9375 A4.1667,4.1667 0 0 1 627.0833,453.7708 L627.0833,355.8854 A4.1667,4.1667 0 0 1 631.25,351.7187" fill="#555555" style="stroke:#2A9FD6;stroke-width:2.0833;"/><line style="stroke:#2A9FD6;stroke-width:2.0833;" x1="627.0833" x2="770.8415" y1="382.9362" y2="382.9362"/><text fill="#2A9FD6" font-family="'Verdana'" font-size="12.5" font-weight="bold" lengthAdjust="spacing" textLength="119.7998" x="636.4583" y="370.6132">servicio-clientes/</text></g><!--cluster src/main/java/--><g class="cluster" data-entity="src.main.java." data-source-line="42" data-uid="ent0023" id="cluster_src.main.java."><path d="M104.1667,482.9375 L211.1572,482.9375 A6.25,6.25 0 0 1 215.3239,487.1042 L222.6156,514.1549 L661.4583,514.1549 A4.1667,4.1667 0 0 1 665.625,518.3216 L665.625,584.9896 A4.1667,4.1667 0 0 1 661.4583,589.1563 L104.1667,589.1563 A4.1667,4.1667 0 0 1 100,584.9896 L100,487.1042 A4.1667,4.1667 0 0 1 104.1667,482.9375" fill="#555555" style="stroke:#2A9FD6;stroke-width:2.0833;"/><line style="stroke:#2A9FD6;stroke-width:2.0833;" x1="100" x2="222.6156" y1="514.1549" y2="514.1549"/><text fill="#2A9FD6" font-family="'Verdana'" font-size="12.5" font-weight="bold" lengthAdjust="spacing" textLength="98.6572" x="109.375" y="501.8319">src/main/java/</text></g><!--cluster com.facturacion.servicioclientes/--><g class="cluster" data-entity="com.facturacion.servicioclientes." data-source-line="47" data-uid="ent0026" id="cluster_com.facturacion.servicioclientes."><path d="M214.5833,614.1563 L455.9855,614.1563 A6.25,6.25 0 0 1 460.1522,618.3229 L467.4438,645.3737 L791.6667,645.3737 A4.1667,4.1667 0 0 1 795.8333,649.5404 L795.8333,716.2083 A4.1667,4.1667 0 0 1 791.6667,720.375 L214.5833,720.375 A4.1667,4.1667 0 0 1 210.4167,716.2083 L210.4167,618.3229 A4.1667,4.1667 0 0 1 214.5833,614.1563" fill="#555555" style="stroke:#2A9FD6;stroke-width:2.0833;"/><line style="stroke:#2A9FD6;stroke-width:2.0833;" x1="210.4167" x2="467.4438" y1="645.3737" y2="645.3737"/><text fill="#2A9FD6" font-family="'Verdana'" font-size="12.5" font-weight="bold" lengthAdjust="spacing" textLength="233.0688" x="219.7917" y="633.0507">com.facturacion.servicioclientes/</text></g><!--cluster src/main/resources/--><g class="cluster" data-entity="src.main.resources." data-source-line="61" data-uid="ent0037" id="cluster_src.main.resources."><path d="M793.75,482.9375 L940.4989,482.9375 A6.25,6.25 0 0 1 944.6655,487.1042 L951.9572,514.1549 L1139.5833,514.1549 A4.1667,4.1667 0 0 1 1143.75,518.3216 L1143.75,584.9896 A4.1667,4.1667 0 0 1 1139.5833,589.1563 L793.75,589.1563 A4.1667,4.1667 0 0 1 789.5833,584.9896 L789.5833,487.1042 A4.1667,4.1667 0 0 1 793.75,482.9375" fill="#555555" style="stroke:#2A9FD6;stroke-width:2.0833;"/><line style="stroke:#2A9FD6;stroke-width:2.0833;" x1="789.5833" x2="951.9572" y1="514.1549" y2="514.1549"/><text fill="#2A9FD6" font-family="'Verdana'" font-size="12.5" font-weight="bold" lengthAdjust="spacing" textLength="138.4155" x="798.9583" y="501.8319">src/main/resources/</text></g><!--cluster servicio-facturacion/--><g class="cluster" data-entity="servicio-facturacion." data-source-line="69" data-uid="ent0042" id="cluster_servicio-facturacion."><path d="M20.8333,351.7187 L173.6552,351.7187 A6.25,6.25 0 0 1 177.8219,355.8854 L185.1135,382.9362 L597.9167,382.9362 A4.1667,4.1667 0 0 1 602.0833,387.1029 L602.0833,453.7708 A4.1667,4.1667 0 0 1 597.9167,457.9375 L20.8333,457.9375 A4.1667,4.1667 0 0 1 16.6667,453.7708 L16.6667,355.8854 A4.1667,4.1667 0 0 1 20.8333,351.7187" fill="#555555" style="stroke:#2A9FD6;stroke-width:2.0833;"/><line style="stroke:#2A9FD6;stroke-width:2.0833;" x1="16.6667" x2="185.1135" y1="382.9362" y2="382.9362"/><text fill="#2A9FD6" font-family="'Verdana'" font-size="12.5" font-weight="bold" lengthAdjust="spacing" textLength="144.4885" x="26.0417" y="370.6132">servicio-facturacion/</text></g><!--entity Back--><g class="entity" data-entity="Back" data-source-line="14" data-uid="ent0003" id="entity_Back"><rect fill="#222222" height="45.8008" rx="4.1667" ry="4.1667" style="stroke:#888888;stroke-width:2.0833;" width="65.8081" x="581.6771" y="116.375"/><text fill="#FFFFFF" font-family="'Verdana'" font-size="12.5" lengthAdjust="spacing" textLength="34.5581" x="597.3021" y="143.6028">Back/</text></g><!--entity gitignore--><g class="entity" data-entity="gitignore" data-source-line="15" data-uid="ent0004" id="entity_gitignore"><rect fill="#222222" height="45.8008" rx="4.1667" ry="4.1667" style="stroke:#888888;stroke-width:2.0833;" width="91.3391" x="683.5" y="116.375"/><text fill="#FFFFFF" font-family="'Verdana'" font-size="12.5" lengthAdjust="spacing" textLength="60.0891" x="699.125" y="143.6028">.gitignore</text></g><!--entity gitattributes--><g class="entity" data-entity="gitattributes" data-source-line="16" data-uid="ent0005" id="entity_gitattributes"><rect fill="#222222" height="45.8008" rx="4.1667" ry="4.1667" style="stroke:#888888;stroke-width:2.0833;" width="112.5671" x="811.4271" y="116.375"/><text fill="#FFFFFF" font-family="'Verdana'" font-size="12.5" lengthAdjust="spacing" textLength="81.3171" x="827.0521" y="143.6028">.gitattributes</text></g><!--entity clientes--><g class="entity" data-entity="clientes" data-source-line="24" data-uid="ent0010" id="entity_clientes"><rect fill="#222222" height="45.8008" rx="4.1667" ry="4.1667" style="stroke:#888888;stroke-width:2.0833;" width="136.7126" x="638.9375" y="264.2604"/><text fill="#FFFFFF" font-family="'Verdana'" font-size="12.5" lengthAdjust="spacing" textLength="105.4626" x="654.5625" y="291.4882">servicio-clientes/</text></g><!--entity facturacion--><g class="entity" data-entity="facturacion" data-source-line="25" data-uid="ent0011" id="entity_facturacion"><rect fill="#222222" height="45.8008" rx="4.1667" ry="4.1667" style="stroke:#888888;stroke-width:2.0833;" width="158.6487" x="443.5938" y="264.2604"/><text fill="#FFFFFF" font-family="'Verdana'" font-size="12.5" lengthAdjust="spacing" textLength="127.3987" x="459.2188" y="291.4882">servicio-facturacion/</text></g><!--entity clientes_pom--><g class="entity" data-entity="clientes_pom" data-source-line="32" data-uid="ent0015" id="entity_clientes_pom"><rect fill="#222222" height="45.8008" rx="4.1667" ry="4.1667" style="stroke:#888888;stroke-width:2.0833;" width="86.0291" x="643.4479" y="395.4687"/><text fill="#FFFFFF" font-family="'Verdana'" font-size="12.5" lengthAdjust="spacing" textLength="54.7791" x="659.0729" y="422.6965">pom.xml</text></g><!--entity clientes_java--><g class="entity" data-entity="clientes_java" data-source-line="33" data-uid="ent0016" id="entity_clientes_java"><rect fill="#222222" height="45.8008" rx="4.1667" ry="4.1667" style="stroke:#888888;stroke-width:2.0833;" width="119.8303" x="766.125" y="395.4687"/><text fill="#FFFFFF" font-family="'Verdana'" font-size="12.5" lengthAdjust="spacing" textLength="88.5803" x="781.75" y="422.6965">src/main/java/</text></g><!--entity clientes_res--><g class="entity" data-entity="clientes_res" data-source-line="34" data-uid="ent0017" id="entity_clientes_res"><rect fill="#222222" height="45.8008" rx="4.1667" ry="4.1667" style="stroke:#888888;stroke-width:2.0833;" width="154.7668" x="922.6146" y="395.4687"/><text fill="#FFFFFF" font-family="'Verdana'" font-size="12.5" lengthAdjust="spacing" textLength="123.5168" x="938.2396" y="422.6965">src/main/resources/</text></g><!--entity clientes_test--><g class="entity" data-entity="clientes_test" data-source-line="35" data-uid="ent0018" id="entity_clientes_test"><rect fill="#222222" height="45.8008" rx="4.1667" ry="4.1667" style="stroke:#888888;stroke-width:2.0833;" width="82.2021" x="1114.1042" y="395.4687"/><text fill="#FFFFFF" font-family="'Verdana'" font-size="12.5" lengthAdjust="spacing" textLength="50.9521" x="1129.7292" y="422.6965">src/test/</text></g><!--entity clientes_pkg--><g class="entity" data-entity="clientes_pkg" data-source-line="43" data-uid="ent0024" id="entity_clientes_pkg"><rect fill="#222222" height="45.8008" rx="4.1667" ry="4.1667" style="stroke:#888888;stroke-width:2.0833;" width="237.3169" x="411.5521" y="526.6875"/><text fill="#FFFFFF" font-family="'Verdana'" font-size="12.5" lengthAdjust="spacing" textLength="206.0669" x="427.1771" y="553.9153">com.facturacion.servicioclientes/</text></g><!--entity fact_pkg--><g class="entity" data-entity="fact_pkg" data-source-line="81" data-uid="ent0051" id="entity_fact_pkg"><rect fill="#222222" height="45.8008" rx="4.1667" ry="4.1667" style="stroke:#888888;stroke-width:2.0833;" width="259.2529" x="116.2083" y="526.6875"/><text fill="#FFFFFF" font-family="'Verdana'" font-size="12.5" lengthAdjust="spacing" textLength="228.0029" x="131.8333" y="553.9153">com.facturacion.serviciofacturacion/</text></g><!--entity clientes_controller--><g class="entity" data-entity="clientes_controller" data-source-line="48" data-uid="ent0027" id="entity_clientes_controller"><rect fill="#222222" height="45.8008" rx="4.1667" ry="4.1667" style="stroke:#888888;stroke-width:2.0833;" width="95.3674" x="227.3125" y="657.9063"/><text fill="#FFFFFF" font-family="'Verdana'" font-size="12.5" lengthAdjust="spacing" textLength="64.1174" x="242.9375" y="685.134">controller/</text></g><!--entity clientes_repo--><g class="entity" data-entity="clientes_repo" data-source-line="49" data-uid="ent0028" id="entity_clientes_repo"><rect fill="#222222" height="45.8008" rx="4.1667" ry="4.1667" style="stroke:#888888;stroke-width:2.0833;" width="98.9441" x="358.8646" y="657.9063"/><text fill="#FFFFFF" font-family="'Verdana'" font-size="12.5" lengthAdjust="spacing" textLength="67.6941" x="374.4896" y="685.134">repository/</text></g><!--entity clientes_entity--><g class="entity" data-entity="clientes_entity" data-source-line="50" data-uid="ent0029" id="entity_clientes_entity"><rect fill="#222222" height="45.8008" rx="4.1667" ry="4.1667" style="stroke:#888888;stroke-width:2.0833;" width="71.7468" x="494.3333" y="657.9063"/><text fill="#FFFFFF" font-family="'Verdana'" font-size="12.5" lengthAdjust="spacing" textLength="40.4968" x="509.9583" y="685.134">entity/</text></g><!--entity clientes_dto--><g class="entity" data-entity="clientes_dto" data-source-line="51" data-uid="ent0030" id="entity_clientes_dto"><rect fill="#222222" height="45.8008" rx="4.1667" ry="4.1667" style="stroke:#888888;stroke-width:2.0833;" width="55.9448" x="602.2396" y="657.9063"/><text fill="#FFFFFF" font-family="'Verdana'" font-size="12.5" lengthAdjust="spacing" textLength="24.6948" x="617.8646" y="685.134">dto/</text></g><!--entity clientes_adapter--><g class="entity" data-entity="clientes_adapter" data-source-line="52" data-uid="ent0031" id="entity_clientes_adapter"><rect fill="#222222" height="45.8008" rx="4.1667" ry="4.1667" style="stroke:#888888;stroke-width:2.0833;" width="84.3811" x="694.2708" y="657.9063"/><text fill="#FFFFFF" font-family="'Verdana'" font-size="12.5" lengthAdjust="spacing" textLength="53.1311" x="709.8958" y="685.134">adapter/</text></g><!--entity clientes_props--><g class="entity" data-entity="clientes_props" data-source-line="62" data-uid="ent0038" id="entity_clientes_props"><rect fill="#222222" height="45.8008" rx="4.1667" ry="4.1667" style="stroke:#888888;stroke-width:2.0833;" width="168.2373" x="806.5104" y="526.6875"/><text fill="#FFFFFF" font-family="'Verdana'" font-size="12.5" lengthAdjust="spacing" textLength="136.9873" x="822.1354" y="553.9153">application.properties</text></g><!--entity clientes_db--><g class="entity" data-entity="clientes_db" data-source-line="63" data-uid="ent0039" id="entity_clientes_db"><rect fill="#222222" height="45.8008" rx="4.1667" ry="4.1667" style="stroke:#888888;stroke-width:2.0833;" width="115.8691" x="1010.8125" y="526.6875"/><text fill="#FFFFFF" font-family="'Verdana'" font-size="12.5" lengthAdjust="spacing" textLength="84.6191" x="1026.4375" y="553.9153">db/migration/</text></g><!--entity fact_pom--><g class="entity" data-entity="fact_pom" data-source-line="70" data-uid="ent0043" id="entity_fact_pom"><rect fill="#222222" height="45.8008" rx="4.1667" ry="4.1667" style="stroke:#888888;stroke-width:2.0833;" width="86.0291" x="33.0313" y="395.4687"/><text fill="#FFFFFF" font-family="'Verdana'" font-size="12.5" lengthAdjust="spacing" textLength="54.7791" x="48.6563" y="422.6965">pom.xml</text></g><!--entity fact_java--><g class="entity" data-entity="fact_java" data-source-line="71" data-uid="ent0044" id="entity_fact_java"><rect fill="#222222" height="45.8008" rx="4.1667" ry="4.1667" style="stroke:#888888;stroke-width:2.0833;" width="119.8303" x="155.7083" y="395.4687"/><text fill="#FFFFFF" font-family="'Verdana'" font-size="12.5" lengthAdjust="spacing" textLength="88.5803" x="171.3333" y="422.6965">src/main/java/</text></g><!--entity fact_res--><g class="entity" data-entity="fact_res" data-source-line="72" data-uid="ent0045" id="entity_fact_res"><rect fill="#222222" height="45.8008" rx="4.1667" ry="4.1667" style="stroke:#888888;stroke-width:2.0833;" width="154.7668" x="312.1979" y="395.4687"/><text fill="#FFFFFF" font-family="'Verdana'" font-size="12.5" lengthAdjust="spacing" textLength="123.5168" x="327.8229" y="422.6965">src/main/resources/</text></g><!--entity fact_test--><g class="entity" data-entity="fact_test" data-source-line="73" data-uid="ent0046" id="entity_fact_test"><rect fill="#222222" height="45.8008" rx="4.1667" ry="4.1667" style="stroke:#888888;stroke-width:2.0833;" width="82.2021" x="503.6875" y="395.4687"/><text fill="#FFFFFF" font-family="'Verdana'" font-size="12.5" lengthAdjust="spacing" textLength="50.9521" x="519.3125" y="422.6965">src/test/</text></g><!--link Repo to Back--><g class="link" data-entity-1="Repo" data-entity-2="Back" data-source-line="19" data-uid="lnk6" id="link_Repo_Back"><path d="M728.7604,54.1562 C724.7604,57 691.8958,80.3229 665.625,99.7083 C658.5625,104.9167 656.0025,106.8124 648.9087,112.1561" fill="none" id="Repo-to-Back" style="stroke:#AAAAAA;stroke-width:3.125;"/><polygon fill="#AAAAAA" points="643.9167,115.9167,653.9118,113.6039,648.0767,112.7829,648.8977,106.9478,643.9167,115.9167" style="stroke:#AAAAAA;stroke-width:3.125;"/></g><!--link Repo to gitignore--><g class="link" data-entity-1="Repo" data-entity-2="gitignore" data-source-line="20" data-uid="lnk7" id="link_Repo_gitignore"><path d="M729.1667,54.1146 C729.1667,57.3437 729.1667,85.9062 729.1667,109.7187" fill="none" id="Repo-to-gitignore" style="stroke:#AAAAAA;stroke-width:3.125;"/><polygon fill="#AAAAAA" points="729.1667,115.9687,733.3333,106.5937,729.1667,110.7604,725,106.5937,729.1667,115.9687" style="stroke:#AAAAAA;stroke-width:3.125;"/></g><!--link Repo to gitattributes--><g class="link" data-entity-1="Repo" data-entity-2="gitattributes" data-source-line="21" data-uid="lnk8" id="link_Repo_gitattributes"><path d="M729.5625,54.1146 C734.8646,57.3437 786.7035,88.9056 825.8077,112.7181" fill="none" id="Repo-to-gitattributes" style="stroke:#AAAAAA;stroke-width:3.125;"/><polygon fill="#AAAAAA" points="831.1458,115.9687,825.3057,107.534,826.6974,113.2599,820.9715,114.6515,831.1458,115.9687" style="stroke:#AAAAAA;stroke-width:3.125;"/></g><!--link Back to clientes--><g class="link" data-entity-1="Back" data-entity-2="clientes" data-source-line="28" data-uid="lnk12" id="link_Back_clientes"><path d="M628.6667,162.4583 C646.0938,189.8646 672.2397,230.9866 689.7293,258.4866" fill="none" id="Back-to-clientes" style="stroke:#AAAAAA;stroke-width:3.125;"/><polygon fill="#AAAAAA" points="693.0833,263.7604,691.5681,253.6137,690.2883,259.3656,684.5364,258.0858,693.0833,263.7604" style="stroke:#AAAAAA;stroke-width:3.125;"/></g><!--link Back to facturacion--><g class="link" data-entity-1="Back" data-entity-2="facturacion" data-source-line="29" data-uid="lnk13" id="link_Back_facturacion"><path d="M600.6563,162.4583 C583.4271,189.8646 557.5873,230.9695 540.2956,258.4695" fill="none" id="Back-to-facturacion" style="stroke:#AAAAAA;stroke-width:3.125;"/><polygon fill="#AAAAAA" points="536.9688,263.7604,545.4864,258.0419,539.7412,259.3513,538.4318,253.606,536.9688,263.7604" style="stroke:#AAAAAA;stroke-width:3.125;"/></g><!--link clientes to clientes_pom--><g class="link" data-entity-1="clientes" data-entity-2="clientes_pom" data-source-line="37" data-uid="lnk19" id="link_clientes_clientes_pom"><path d="M703.7083,310.3958 C699.8958,334.0521 694.8804,365.111 691.0574,388.8193" fill="none" id="clientes-to-clientes_pom" style="stroke:#AAAAAA;stroke-width:3.125;"/><polygon fill="#AAAAAA" points="690.0625,394.9896,695.6685,386.3974,690.8916,389.8477,687.4414,385.0708,690.0625,394.9896" style="stroke:#AAAAAA;stroke-width:3.125;"/></g><!--link clientes to clientes_java--><g class="link" data-entity-1="clientes" data-entity-2="clientes_java" data-source-line="38" data-uid="lnk20" id="link_clientes_clientes_java"><path d="M727.7083,310.3958 C749.4583,334.0521 779.4673,366.6808 801.2694,390.3891" fill="none" id="clientes-to-clientes_java" style="stroke:#AAAAAA;stroke-width:3.125;"/><polygon fill="#AAAAAA" points="805.5,394.9896,802.2211,385.2684,801.9745,391.1558,796.0871,390.9092,805.5,394.9896" style="stroke:#AAAAAA;stroke-width:3.125;"/></g><!--link clientes to clientes_res--><g class="link" data-entity-1="clientes" data-entity-2="clientes_res" data-source-line="39" data-uid="lnk21" id="link_clientes_clientes_res"><path d="M775.7292,300.6042 C814.7292,309.3125 863.7188,323.0833 904.1667,343.3854 C931.2083,356.9687 953.4892,374.5096 971.885,390.8951" fill="none" id="clientes-to-clientes_res" style="stroke:#AAAAAA;stroke-width:3.125;"/><polygon fill="#AAAAAA" points="976.5521,395.0521,972.3228,385.7052,972.6629,391.5879,966.7801,391.9279,976.5521,395.0521" style="stroke:#AAAAAA;stroke-width:3.125;"/></g><!--link clientes to clientes_test--><g class="link" data-entity-1="clientes" data-entity-2="clientes_test" data-source-line="40" data-uid="lnk22" id="link_clientes_clientes_test"><path d="M776,291.9063 C872.5833,298.125 1042.625,313.0833 1095.8333,343.3854 C1116.8646,355.3646 1130.1179,372.6031 1140.3158,389.676" fill="none" id="clientes-to-clientes_test" style="stroke:#AAAAAA;stroke-width:3.125;"/><polygon fill="#AAAAAA" points="1143.5208,395.0417,1142.2904,384.8565,1140.85,390.5703,1135.1362,389.1298,1143.5208,395.0417" style="stroke:#AAAAAA;stroke-width:3.125;"/></g><!--link clientes_java to clientes_pkg--><g class="link" data-entity-1="clientes_java" data-entity-2="clientes_pkg" data-source-line="45" data-uid="lnk25" id="link_clientes_java_clientes_pkg"><path d="M791.7813,441.7813 C778.3958,450.0313 762.7188,459.1042 747.9167,466.2708 C699.3646,489.7708 648.1563,509.0913 604.6042,524.1642" fill="none" id="clientes_java-to-clientes_pkg" style="stroke:#AAAAAA;stroke-width:3.125;"/><polygon fill="#AAAAAA" points="598.6979,526.2083,608.9201,527.0797,603.6198,524.5049,606.1946,519.2047,598.6979,526.2083" style="stroke:#AAAAAA;stroke-width:3.125;"/></g><!--link clientes_pkg to clientes_controller--><g class="link" data-entity-1="clientes_pkg" data-entity-2="clientes_controller" data-source-line="54" data-uid="lnk32" id="link_clientes_pkg_clientes_controller"><path d="M472.4479,572.9792 C448.3958,581.6146 420.0104,590.9792 393.75,597.4896 C370.5521,603.25 361.5938,594.3646 340.625,605.8229 C318.4896,617.9271 303.6553,635.3458 292.0407,652.3875" fill="none" id="clientes_pkg-to-clientes_controller" style="stroke:#AAAAAA;stroke-width:3.125;"/><polygon fill="#AAAAAA" points="288.5208,657.5521,297.2437,652.1518,291.4541,653.2483,290.3576,647.4586,288.5208,657.5521" style="stroke:#AAAAAA;stroke-width:3.125;"/></g><!--link clientes_pkg to clientes_repo--><g class="link" data-entity-1="clientes_pkg" data-entity-2="clientes_repo" data-source-line="55" data-uid="lnk33" id="link_clientes_pkg_clientes_repo"><path d="M508.1563,572.75 C498.2604,582.7708 486.4792,594.8125 476.0417,605.8229 C459.7604,623 445.8619,638.1693 432.4765,652.9506" fill="none" id="clientes_pkg-to-clientes_repo" style="stroke:#AAAAAA;stroke-width:3.125;"/><polygon fill="#AAAAAA" points="428.2813,657.5833,437.6626,653.4311,431.7773,653.7227,431.4856,647.8374,428.2813,657.5833" style="stroke:#AAAAAA;stroke-width:3.125;"/></g><!--link clientes_pkg to clientes_entity--><g class="link" data-entity-1="clientes_pkg" data-entity-2="clientes_entity" data-source-line="56" data-uid="lnk34" id="link_clientes_pkg_clientes_entity"><path d="M530.2083,572.8333 C530.2083,596.4792 530.2083,627.4687 530.2083,651.1771" fill="none" id="clientes_pkg-to-clientes_entity" style="stroke:#AAAAAA;stroke-width:3.125;"/><polygon fill="#AAAAAA" points="530.2083,657.4271,534.375,648.0521,530.2083,652.2187,526.0417,648.0521,530.2083,657.4271" style="stroke:#AAAAAA;stroke-width:3.125;"/></g><!--link clientes_pkg to clientes_dto--><g class="link" data-entity-1="clientes_pkg" data-entity-2="clientes_dto" data-source-line="57" data-uid="lnk35" id="link_clientes_pkg_clientes_dto"><path d="M554.3438,572.9375 C564.1771,582.5938 575.3438,594.3125 584.375,605.8229 C597.2396,622.2188 606.4593,636.996 615.0843,652.1418" fill="none" id="clientes_pkg-to-clientes_dto" style="stroke:#AAAAAA;stroke-width:3.125;"/><polygon fill="#AAAAAA" points="618.1771,657.5729,617.1586,647.3644,615.5997,653.047,609.9171,651.4881,618.1771,657.5729" style="stroke:#AAAAAA;stroke-width:3.125;"/></g><!--link clientes_pkg to clientes_adapter--><g class="link" data-entity-1="clientes_pkg" data-entity-2="clientes_adapter" data-source-line="58" data-uid="lnk36" id="link_clientes_pkg_clientes_adapter"><path d="M611.5938,572.9063 C633.6979,581.1667 656.8125,591.9896 676.0417,605.8229 C695.4167,619.7708 708.6385,636.2225 719.5343,652.5037" fill="none" id="clientes_pkg-to-clientes_adapter" style="stroke:#AAAAAA;stroke-width:3.125;"/><polygon fill="#AAAAAA" points="723.0104,657.6979,721.2591,647.5893,720.1137,653.3694,714.3335,652.224,723.0104,657.6979" style="stroke:#AAAAAA;stroke-width:3.125;"/></g><!--link clientes_res to clientes_props--><g class="link" data-entity-1="clientes_res" data-entity-2="clientes_props" data-source-line="65" data-uid="lnk40" id="link_clientes_res_clientes_props"><path d="M981.1979,441.6146 C961.1667,465.2708 933.6635,497.73 913.5906,521.4384" fill="none" id="clientes_res-to-clientes_props" style="stroke:#AAAAAA;stroke-width:3.125;"/><polygon fill="#AAAAAA" points="909.5521,526.2083,918.7899,521.7457,912.9175,522.2334,912.4299,516.361,909.5521,526.2083" style="stroke:#AAAAAA;stroke-width:3.125;"/></g><!--link clientes_res to clientes_db--><g class="link" data-entity-1="clientes_res" data-entity-2="clientes_db" data-source-line="66" data-uid="lnk41" id="link_clientes_res_clientes_db"><path d="M1011.8229,441.6146 C1024.4063,465.2708 1041.2915,496.9834 1053.9165,520.6917" fill="none" id="clientes_res-to-clientes_db" style="stroke:#AAAAAA;stroke-width:3.125;"/><polygon fill="#AAAAAA" points="1056.8542,526.2083,1056.1254,515.975,1054.4061,521.6112,1048.77,519.8919,1056.8542,526.2083" style="stroke:#AAAAAA;stroke-width:3.125;"/></g><!--link facturacion to fact_pom--><g class="link" data-entity-1="facturacion" data-entity-2="fact_pom" data-source-line="75" data-uid="lnk47" id="link_facturacion_fact_pom"><path d="M443.3229,292.875 C346.1458,299.7292 188.4583,314.8958 137.5,343.3854 C116.0833,355.3646 102.3116,372.6682 91.645,389.7411" fill="none" id="facturacion-to-fact_pom" style="stroke:#AAAAAA;stroke-width:3.125;"/><polygon fill="#AAAAAA" points="88.3333,395.0417,96.8345,389.2986,91.093,390.6246,89.7671,384.8831,88.3333,395.0417" style="stroke:#AAAAAA;stroke-width:3.125;"/></g><!--link facturacion to fact_java--><g class="link" data-entity-1="facturacion" data-entity-2="fact_java" data-source-line="76" data-uid="lnk48" id="link_facturacion_fact_java"><path d="M443.1354,297.0104 C397.3021,304.5521 339.8854,318.3646 293.75,343.3854 C269.9479,356.3021 252.1471,373.6 237.6367,390.2562" fill="none" id="facturacion-to-fact_java" style="stroke:#AAAAAA;stroke-width:3.125;"/><polygon fill="#AAAAAA" points="233.5313,394.9688,242.8311,390.6369,236.9524,391.0416,236.5477,385.163,233.5313,394.9688" style="stroke:#AAAAAA;stroke-width:3.125;"/></g><!--link facturacion to fact_res--><g class="link" data-entity-1="facturacion" data-entity-2="fact_res" data-source-line="77" data-uid="lnk49" id="link_facturacion_fact_res"><path d="M500,310.3958 C475.5729,334.0521 441.6136,366.9321 417.1449,390.6405" fill="none" id="facturacion-to-fact_res" style="stroke:#AAAAAA;stroke-width:3.125;"/><polygon fill="#AAAAAA" points="412.6563,394.9896,422.2886,391.4583,416.3968,391.3653,416.4898,385.4735,412.6563,394.9896" style="stroke:#AAAAAA;stroke-width:3.125;"/></g><!--link facturacion to fact_test--><g class="link" data-entity-1="facturacion" data-entity-2="fact_test" data-source-line="78" data-uid="lnk50" id="link_facturacion_fact_test"><path d="M526.6771,310.3958 C530.6875,334.0521 535.9445,365.1192 539.9654,388.8276" fill="none" id="facturacion-to-fact_test" style="stroke:#AAAAAA;stroke-width:3.125;"/><polygon fill="#AAAAAA" points="541.0104,394.9896,543.5508,385.0499,540.1395,389.8546,535.3348,386.4433,541.0104,394.9896" style="stroke:#AAAAAA;stroke-width:3.125;"/></g><!--link fact_java to fact_pkg--><g class="link" data-entity-1="fact_java" data-entity-2="fact_pkg" data-source-line="83" data-uid="lnk52" id="link_fact_java_fact_pkg"><path d="M220.8229,441.6146 C226.3542,465.2708 233.6399,496.414 239.1816,520.1224" fill="none" id="fact_java-to-fact_pkg" style="stroke:#AAAAAA;stroke-width:3.125;"/><polygon fill="#AAAAAA" points="240.6042,526.2083,242.5276,516.131,239.4187,521.1367,234.413,518.0278,240.6042,526.2083" style="stroke:#AAAAAA;stroke-width:3.125;"/></g><!--SRC=[hLN1ZjiW4BtxA-Zsd4JgQKyhjPLowga_44qmozBOWCOasrMr_xumnZR6iDrAvMJUUyEy6SBaatiIlM3yvMnGDirmKTe2GizGS0TQTeBzQPXVtu1V99ghRh-RpY3x_8NMo1bi1KRydXRXHwDTH8-q21sUe3NFIals2DqWcjSaAo2QvvWnHdwbvLNDOkdkgDmFTHFifx1cKCxWons3WROnEX47wmVYmrVExgLoIcg3WYJphgG3vr2ThquCatP1WaFAl_FLwTt3c6o5B6VdS79COtqSoCNtffv1u4rnPNQyKqBxcB6uQLULFm9tLmJ_gSU810ZkGxxPr7pQ2aqZ5gCbGnlNrlJxttstidhouCOkyaCFIXz-mGtMbPq2LDMZ6CmLUTwE4nPQucCyvJ9bW7mZflsc5sItpfAxEXryr5dAdRGqwyAcdTotCxcD_NG7vT_4oLvaKXbPBPJdHOk53sGekD8EJTS9pF8lH1w2ynFUt9irkTWpokN24SobhJEPpYEv25gmRcCsecd3V6lOBkrLKb1TH2NKwMYyBWYEw-nai_IpIH_3vfR0savnSE5MBHehqAauqfPi7j-yc_Pyw9L4YioRUqxRXSNNGqU-h_77b0RBUdIzErk2z8DpXQJ_CbCeuA_pX5HnbYJ6LqEK75P9ybHbWu4g-R_cIF7F8ewHsMDMqaM-0G00]--></g></svg>